<svg id="Layer_1" data-name="Layer 1" xmlns="http://www.w3.org/2000/svg" viewBox="0 0 1080 600"><defs><style>.cls-1{fill:#58f4da;}.cls-2{fill:#01cbb1;}</style></defs><rect class="cls-1" x="-39.14" y="-127.91" width="1296.46" height="855.83"/><path class="cls-2" d="M72.53,324c4.72-10.21,7.32-21.16,10.89-31.77,5.19-15.4,10.11-30.89,15-46.38.91-2.87,1.86-3.72,5.18-2.93q67,16,134.15,31.59c5.89,1.38,5.79,1.39,6.26-4.31q4.33-52.12,8.75-104.24c.9-10.76,1.88-21.51,2.46-32.29.24-4.3,1.86-5.28,6-5.24,25.76.22,51.52.26,77.28,0,4.7-.06,5.75,1.65,6.07,5.72,1.56,20,3.31,40,5,60.07s3.37,40,5,60.07c.62,7.51.59,7.54-6.46,9.95-43.52,14.88-85.06,33.85-123.13,59.95A339.37,339.37,0,0,0,175.55,365c-2.34,2.36-4.08,2.77-7.24,1.42-31.88-13.61-63.84-27-95.78-40.46Z"/><path class="cls-2" d="M497.46,242.1c2.09-.7,3,.83,3.68,3,8.37,25.87,16.69,51.75,25.24,77.56,1.39,4.19-1.41,3.83-3.62,4.28a418.07,418.07,0,0,0-110.27,39.23Q289,431,224.93,555c-3,5.88-3,5.89-8.52,2.35-29.47-18.94-58.9-37.94-88.46-56.72-3.48-2.22-3.71-3.79-1.73-7.27,70.54-124.19,174.62-204.76,313-240.72A433.12,433.12,0,0,1,497.46,242.1Z"/><path class="cls-2" d="M467.33,509.25c-.21,1.44-1.25,1.78-2,2.34Q432.07,535.77,398.84,560c-2,1.45-2.95,1.06-4.42-.65q-33.57-39.15-67.34-78.16c-2.14-2.47-1.42-4.35-.3-6.68,10.6-22,25.73-40.59,43.14-57.47A193.12,193.12,0,0,1,394.66,397c2.65-1.84,4-1.59,5.68,1.24q32.71,54.4,65.62,108.7C466.47,507.73,467,508.59,467.33,509.25Z"/></svg>