<svg id="Layer_1" data-name="Layer 1" xmlns="http://www.w3.org/2000/svg" viewBox="0 0 1296 1728"><defs><style>.cls-1{fill:#58f4da;}.cls-2{fill:#01cbb1;}</style></defs><rect class="cls-1" y="298.89" width="1296.46" height="855.83"/><path class="cls-2" d="M111.67,750.8c4.73-10.21,7.32-21.16,10.9-31.77,5.18-15.4,10.1-30.89,15-46.38.91-2.87,1.86-3.72,5.18-2.93q67,16,134.16,31.59c5.89,1.38,5.78,1.39,6.26-4.31q4.33-52.12,8.75-104.24c.9-10.76,1.87-21.51,2.46-32.29.23-4.3,1.85-5.28,6-5.24,25.75.21,51.51.26,77.27,0,4.71-.06,5.76,1.65,6.07,5.72,1.56,20,3.32,40.05,5,60.07s3.37,40,5,60.07c.62,7.51.58,7.54-6.46,10-43.53,14.88-85.07,33.85-123.13,59.94a340.2,340.2,0,0,0-49.5,40.88c-2.34,2.36-4.08,2.77-7.24,1.43-31.87-13.61-63.84-27-95.78-40.46Z"/><path class="cls-2" d="M536.6,668.91c2.1-.71,3,.82,3.69,3,8.36,25.87,16.68,51.76,25.23,77.57,1.39,4.19-1.41,3.82-3.61,4.28A417.46,417.46,0,0,0,451.64,793Q328.16,857.79,264.08,981.8c-3,5.88-3,5.89-8.53,2.34-29.46-18.93-58.89-37.93-88.46-56.71-3.48-2.22-3.71-3.79-1.73-7.27C235.9,796,340,715.4,478.34,679.44A433.4,433.4,0,0,1,536.6,668.91Z"/><path class="cls-2" d="M506.47,936.06c-.2,1.44-1.24,1.78-2,2.34Q471.21,962.58,438,986.78c-2,1.45-3,1.06-4.41-.65Q400,947,366.23,908c-2.15-2.47-1.43-4.36-.31-6.68,10.6-22,25.73-40.6,43.14-57.47a194.51,194.51,0,0,1,24.74-20.06c2.65-1.84,4-1.59,5.68,1.23q32.72,54.42,65.63,108.71C505.61,934.54,506.09,935.4,506.47,936.06Z"/></svg>